<?xml version="1.0" encoding="utf-8"?>
<!-- Generator: Adobe Illustrator 23.0.1, SVG Export Plug-In . SVG Version: 6.00 Build 0)  -->
<svg version="1.1" id="Ebene_1" xmlns="http://www.w3.org/2000/svg" xmlns:xlink="http://www.w3.org/1999/xlink" x="0px" y="0px"
	 viewBox="0 0 265.47 55.08" style="enable-background:new 0 0 265.47 55.08;" xml:space="preserve">
<style type="text/css">
	.st0{fill:#009FE3;}
	.st1{clip-path:url(#SVGID_2_);fill:none;stroke:#009FE3;stroke-width:4.59;}
	.st2{clip-path:url(#SVGID_2_);fill:#009FE3;}
</style>
<g>
	<path class="st0" d="M78.9,32.22c0,0.88-0.18,1.64-0.55,2.27s-0.87,1.15-1.51,1.56c-0.64,0.4-1.39,0.7-2.24,0.9
		c-0.85,0.19-1.76,0.29-2.71,0.29h-9.61V17.68h11.35c0.68,0,1.29,0.15,1.85,0.44c0.55,0.29,1.02,0.67,1.4,1.14
		c0.39,0.47,0.68,1,0.9,1.6c0.21,0.6,0.32,1.21,0.32,1.83c0,0.92-0.23,1.79-0.7,2.63c-0.47,0.84-1.17,1.46-2.11,1.89
		c1.12,0.33,2.01,0.9,2.66,1.72C78.58,29.75,78.9,30.85,78.9,32.22z M67.64,22.25v3h3.66c0.37,0,0.7-0.1,1.01-0.3
		c0.3-0.2,0.45-0.61,0.45-1.21c0-0.53-0.13-0.91-0.39-1.14c-0.26-0.23-0.56-0.34-0.91-0.34H67.64z M73.45,31.12
		c0-0.48-0.13-0.88-0.39-1.2c-0.26-0.32-0.59-0.48-0.99-0.48h-4.43v3.28h4.24c0.44,0,0.81-0.14,1.12-0.41S73.45,31.64,73.45,31.12z"
		/>
	<path class="st0" d="M95.32,32.55v4.68H81.38V17.68h13.69v4.68h-8.32v2.75h7.11v4.35h-7.11v3.08H95.32z"/>
	<path class="st0" d="M103.44,27.63v9.61h-5.37V17.68h4.19l7.85,9.94v-9.94h5.37v19.55h-4.27L103.44,27.63z"/>
	<path class="st0" d="M117.76,27.29c0-1.19,0.22-2.37,0.67-3.52c0.45-1.16,1.11-2.19,1.97-3.11s1.91-1.66,3.14-2.23
		s2.63-0.85,4.21-0.85c1.89,0,3.53,0.39,4.92,1.17s2.42,1.81,3.1,3.1l-4.1,2.92c-0.18-0.48-0.43-0.87-0.73-1.18
		c-0.3-0.31-0.64-0.56-1.01-0.74s-0.75-0.31-1.14-0.39c-0.4-0.07-0.78-0.11-1.14-0.11c-0.77,0-1.44,0.15-2,0.46
		c-0.56,0.3-1.02,0.7-1.38,1.18c-0.36,0.49-0.62,1.04-0.8,1.65c-0.17,0.62-0.26,1.23-0.26,1.83c0,0.68,0.1,1.33,0.3,1.96
		c0.2,0.62,0.5,1.17,0.88,1.65c0.39,0.48,0.86,0.86,1.42,1.14c0.56,0.29,1.19,0.43,1.89,0.43c0.37,0,0.74-0.04,1.13-0.12
		c0.39-0.08,0.76-0.22,1.12-0.41c0.36-0.19,0.68-0.44,0.96-0.74c0.28-0.3,0.51-0.67,0.67-1.12l4.38,2.62
		c-0.29,0.72-0.74,1.36-1.34,1.93c-0.6,0.57-1.28,1.05-2.04,1.43c-0.76,0.38-1.58,0.68-2.45,0.88c-0.87,0.2-1.72,0.3-2.55,0.3
		c-1.45,0-2.78-0.29-3.98-0.87s-2.24-1.34-3.11-2.3c-0.87-0.95-1.55-2.04-2.02-3.25C118,29.77,117.76,28.54,117.76,27.29z"/>
	<path class="st0" d="M155.11,17.68v19.55h-5.37v-7.66h-6.55v7.66h-5.37V17.68h5.37v7.22h6.55v-7.22H155.11z"/>
	<path class="st0" d="M170.34,24.07c-0.55-0.33-1.12-0.62-1.71-0.88c-0.5-0.22-1.05-0.43-1.67-0.62c-0.62-0.19-1.22-0.29-1.8-0.29
		c-0.48,0-0.86,0.07-1.14,0.22c-0.28,0.15-0.43,0.4-0.43,0.74c0,0.26,0.08,0.47,0.25,0.63c0.17,0.17,0.4,0.32,0.72,0.45
		c0.31,0.14,0.69,0.27,1.14,0.4c0.45,0.13,0.96,0.28,1.53,0.47c0.9,0.28,1.71,0.58,2.44,0.91c0.73,0.33,1.34,0.72,1.86,1.17
		c0.51,0.45,0.91,1,1.18,1.64c0.28,0.64,0.41,1.42,0.41,2.34c0,1.18-0.22,2.16-0.65,2.96c-0.43,0.8-1,1.44-1.71,1.91
		c-0.71,0.48-1.51,0.82-2.4,1.03c-0.89,0.21-1.79,0.32-2.69,0.32c-0.72,0-1.45-0.06-2.2-0.17c-0.75-0.11-1.5-0.27-2.24-0.47
		c-0.74-0.2-1.46-0.44-2.15-0.72s-1.33-0.59-1.91-0.94l2.31-4.71c0.64,0.4,1.31,0.76,2.01,1.07c0.59,0.28,1.25,0.52,2,0.74
		c0.74,0.22,1.5,0.33,2.27,0.33c0.59,0,1-0.08,1.23-0.23c0.23-0.16,0.34-0.36,0.34-0.62c0-0.28-0.12-0.51-0.34-0.7
		c-0.23-0.19-0.55-0.36-0.95-0.51c-0.4-0.15-0.87-0.29-1.39-0.44c-0.52-0.15-1.08-0.32-1.67-0.52c-0.86-0.29-1.61-0.61-2.23-0.95
		c-0.62-0.34-1.14-0.72-1.54-1.16c-0.4-0.43-0.7-0.92-0.9-1.47s-0.29-1.18-0.29-1.9c0-1.08,0.2-2.04,0.59-2.86
		c0.39-0.83,0.93-1.51,1.61-2.07c0.68-0.55,1.45-0.97,2.33-1.25c0.87-0.28,1.79-0.43,2.77-0.43c0.72,0,1.41,0.07,2.09,0.21
		c0.68,0.14,1.34,0.31,1.97,0.52c0.63,0.21,1.23,0.44,1.78,0.69c0.55,0.25,1.05,0.48,1.49,0.7L170.34,24.07z"/>
	<path class="st0" d="M190.52,22.36h-5.62v14.87h-5.37V22.36h-5.65v-4.68h16.63V22.36z"/>
	<path class="st0" d="M200.74,37.4c-1.49,0-2.84-0.28-4.05-0.85s-2.25-1.32-3.11-2.24c-0.86-0.93-1.53-1.99-2.01-3.18
		c-0.48-1.19-0.72-2.42-0.72-3.69c0-1.28,0.25-2.52,0.74-3.72c0.5-1.19,1.19-2.24,2.08-3.15c0.89-0.91,1.95-1.63,3.17-2.18
		c1.22-0.54,2.56-0.81,4.01-0.81c1.49,0,2.84,0.28,4.05,0.85s2.25,1.32,3.11,2.26c0.86,0.94,1.53,2,2,3.2
		c0.47,1.19,0.7,2.41,0.7,3.66c0,1.29-0.25,2.52-0.74,3.7c-0.5,1.18-1.18,2.23-2.07,3.14c-0.88,0.91-1.93,1.64-3.15,2.19
		C203.53,37.13,202.19,37.4,200.74,37.4z M196.31,27.49c0,0.66,0.09,1.3,0.28,1.91s0.46,1.16,0.83,1.64s0.83,0.86,1.39,1.16
		c0.56,0.29,1.23,0.44,2,0.44s1.44-0.15,2.01-0.45c0.57-0.3,1.03-0.7,1.39-1.18c0.36-0.49,0.62-1.04,0.8-1.67
		c0.17-0.62,0.26-1.26,0.26-1.9c0-0.66-0.09-1.3-0.28-1.91c-0.18-0.61-0.46-1.16-0.84-1.62c-0.38-0.47-0.84-0.84-1.4-1.13
		c-0.56-0.28-1.22-0.43-1.97-0.43c-0.77,0-1.44,0.15-2,0.44c-0.56,0.29-1.02,0.68-1.39,1.17c-0.37,0.49-0.64,1.04-0.81,1.65
		C196.39,26.22,196.31,26.84,196.31,27.49z"/>
	<path class="st0" d="M213,37.24V17.68h8.98c0.95,0,1.84,0.2,2.64,0.59c0.81,0.39,1.5,0.91,2.08,1.54c0.58,0.63,1.03,1.36,1.36,2.18
		c0.33,0.82,0.5,1.64,0.5,2.46c0,1.14-0.25,2.2-0.74,3.18s-1.18,1.79-2.07,2.41l4.13,7.19h-6.06l-3.44-6h-2.01v6H213z M218.37,26.55
		h3.39c0.33,0,0.64-0.18,0.92-0.55c0.28-0.37,0.43-0.88,0.43-1.54c0-0.68-0.17-1.2-0.5-1.56c-0.33-0.36-0.66-0.54-0.99-0.54h-3.25
		V26.55z"/>
	<path class="st0" d="M245.49,32.55v4.68h-13.94V17.68h13.69v4.68h-8.32v2.75h7.11v4.35h-7.11v3.08H245.49z"/>
</g>
<g>
	<defs>
		<rect id="SVGID_1_" y="-0.08" width="265.47" height="55.08"/>
	</defs>
	<clipPath id="SVGID_2_">
		<use xlink:href="#SVGID_1_"  style="overflow:visible;"/>
	</clipPath>
	<rect x="2.3" y="2.21" class="st1" width="260.88" height="50.49"/>
	<path class="st2" d="M39.67,23.73c-0.4-0.4-0.85-0.76-1.33-1.07c-1.27-0.81-2.75-1.25-4.26-1.25c-2.1,0-4.11,0.83-5.59,2.31
		l-7.18,7.18c-1.48,1.48-2.31,3.49-2.31,5.58c0,4.36,3.53,7.9,7.89,7.91c2.09,0.01,4.1-0.82,5.58-2.3l5.93-5.93
		c0.11-0.11,0.17-0.25,0.17-0.4c0-0.31-0.26-0.56-0.57-0.56h-0.23c-1.24,0-2.47-0.23-3.61-0.7c-0.21-0.09-0.45-0.04-0.61,0.12
		l-4.26,4.27c-1.32,1.32-3.47,1.32-4.79,0c-1.32-1.32-1.32-3.47,0-4.79l7.21-7.2c1.32-1.32,3.46-1.32,4.79,0
		c0.89,0.84,2.28,0.84,3.17,0c0.38-0.38,0.62-0.89,0.65-1.43C40.37,24.82,40.13,24.19,39.67,23.73"/>
	<path class="st2" d="M50.56,12.84c-3.09-3.08-8.09-3.08-11.17,0l-5.92,5.91c-0.16,0.16-0.21,0.41-0.12,0.62
		c0.09,0.21,0.3,0.35,0.53,0.34h0.21c1.24,0,2.46,0.24,3.6,0.71c0.21,0.09,0.45,0.04,0.62-0.12l4.25-4.24
		c1.32-1.32,3.47-1.32,4.79,0c1.32,1.32,1.32,3.47,0,4.79l-5.29,5.29l-0.05,0.05l-1.85,1.84c-1.32,1.32-3.46,1.32-4.79,0
		c-0.89-0.84-2.28-0.84-3.17,0c-0.39,0.39-0.62,0.9-0.65,1.44c-0.04,0.65,0.2,1.28,0.65,1.74c0.65,0.66,1.42,1.19,2.26,1.58
		c0.12,0.06,0.24,0.1,0.35,0.15c0.12,0.05,0.24,0.09,0.36,0.14c0.12,0.05,0.24,0.08,0.36,0.12l0.33,0.09
		c0.23,0.06,0.45,0.1,0.68,0.14c0.28,0.04,0.56,0.07,0.84,0.08h0.4h0.03l0.34-0.04c0.12-0.01,0.25-0.03,0.4-0.03h0.19l0.39-0.06
		l0.18-0.03l0.33-0.07h0.06c1.39-0.35,2.65-1.07,3.66-2.08l7.18-7.18C53.65,20.93,53.65,15.93,50.56,12.84"/>
</g>
</svg>
