<svg id="profile" width="40" height="40" viewBox="0 0 258 258" fill="none" xmlns="http://www.w3.org/2000/svg">
<path fill-rule="evenodd" clip-rule="evenodd" d="M129 0C201 0 258 58 258 129C258 201 201 258 129 258C58 258 0 201 0 129C0 58 58 0 129 0ZM35 191C53 166 74 142 106 160C124 170 136 169 155 159C184 142 208 169 224 191C235 174 242 152 242 129C242 67 192 16 129 16C67 16 16 67 16 129C16 152 23 174 35 191ZM129 49C157 49 179 71 179 99C179 126 157 148 129 148C102 148 80 126 80 99C80 71 102 49 129 49Z" fill="currentColor"/>
</svg>
